<?xml version="1.0" standalone="no"?>
<!DOCTYPE svg PUBLIC "-//W3C//DTD SVG 20010904//EN"
 "http://www.w3.org/TR/2001/REC-SVG-20010904/DTD/svg10.dtd">
<svg version="1.0" xmlns="http://www.w3.org/2000/svg"
 width="65.000000pt" height="64.000000pt" viewBox="0 0 65.000000 64.000000"
 preserveAspectRatio="xMidYMid meet">

<g transform="translate(0.000000,64.000000) scale(0.100000,-0.100000)"
fill="#2B4074" stroke="none">
<path d="M70 385 l0 -245 29 0 c29 0 30 -2 33 -53 l3 -52 90 0 90 0 5 55 c4
39 8 50 14 37 5 -9 5 -29 2 -43 -11 -43 8 -54 94 -54 90 0 103 9 98 67 -3 35
-1 38 25 41 l27 3 0 245 0 244 -255 0 -255 0 0 -245z m478 10 c1 -115 0 -216
-3 -223 -3 -10 -13 -6 -34 15 -21 21 -26 32 -20 45 38 72 -60 135 -110 72 -22
-29 -27 -59 -11 -69 15 -10 12 -35 -5 -35 -8 0 -15 -3 -15 -7 0 -5 -4 -14 -9
-22 -7 -12 -15 -8 -40 17 -18 17 -27 33 -21 37 17 11 11 64 -10 85 -29 29 -74
26 -100 -7 -12 -16 -19 -35 -16 -45 3 -10 9 -27 12 -38 4 -14 2 -20 -9 -20 -9
0 -18 -9 -22 -19 -4 -12 -12 -18 -21 -14 -19 7 -21 428 -1 436 6 3 106 5 222
4 l210 -2 3 -210z"/>
<path d="M447 564 c-4 -4 -7 -17 -7 -29 0 -25 -29 -55 -52 -55 -9 0 -21 -7
-28 -15 -16 -19 -54 -19 -70 0 -18 21 -54 15 -58 -10 -6 -28 -21 -45 -42 -45
-28 0 -45 -27 -30 -45 22 -26 49 -18 58 18 6 23 15 33 33 35 13 2 28 8 34 13
13 13 62 11 84 -3 26 -16 51 -3 51 25 0 25 16 43 54 62 27 14 28 49 1 53 -12
2 -24 0 -28 -4z m36 -11 c9 -9 -13 -34 -24 -27 -14 8 -11 34 4 34 8 0 17 -3
20 -7z m-207 -94 c10 -17 -13 -36 -27 -22 -12 12 -4 33 11 33 5 0 12 -5 16
-11z m130 0 c10 -17 -13 -36 -27 -22 -12 12 -4 33 11 33 5 0 12 -5 16 -11z
m-206 -79 c0 -21 -15 -27 -25 -10 -7 12 2 30 16 30 5 0 9 -9 9 -20z"/>
</g>
</svg>
