<?xml version="1.0" standalone="no"?>
<!DOCTYPE svg PUBLIC "-//W3C//DTD SVG 20010904//EN"
 "http://www.w3.org/TR/2001/REC-SVG-20010904/DTD/svg10.dtd">
<svg version="1.0" xmlns="http://www.w3.org/2000/svg"
 width="64.000000pt" height="64.000000pt" viewBox="0 0 64.000000 64.000000"
 preserveAspectRatio="xMidYMid meet">

<g transform="translate(0.000000,64.000000) scale(0.100000,-0.100000)"
fill="#2B4074" stroke="none">
<path d="M555 450 l-39 -40 -248 0 -249 0 3 -127 3 -128 250 0 250 0 3 95 c3
94 3 95 39 132 l37 37 -20 23 -19 23 23 -19 c17 -15 25 -17 35 -7 8 8 9 16 1
28 -17 28 -28 25 -69 -17z m-75 -68 c0 -4 -21 -28 -46 -52 -45 -45 -80 -97
-70 -107 10 -11 51 11 93 50 24 22 45 38 47 36 3 -2 2 -32 -1 -67 l-6 -62
-228 0 -229 0 0 98 c0 54 3 102 7 105 9 10 433 9 433 -1z"/>
<path d="M90 335 c0 -12 19 -15 110 -15 91 0 110 3 110 15 0 12 -19 15 -110
15 -91 0 -110 -3 -110 -15z"/>
<path d="M90 285 c0 -12 19 -15 110 -15 91 0 110 3 110 15 0 12 -19 15 -110
15 -91 0 -110 -3 -110 -15z"/>
<path d="M93 228 c5 -18 209 -18 215 0 3 9 -23 12 -108 12 -85 0 -111 -3 -107
-12z"/>
</g>
</svg>
