<?xml version="1.0" standalone="no"?>
<!DOCTYPE svg PUBLIC "-//W3C//DTD SVG 20010904//EN"
 "http://www.w3.org/TR/2001/REC-SVG-20010904/DTD/svg10.dtd">
<svg version="1.0" xmlns="http://www.w3.org/2000/svg"
 width="58.000000pt" height="64.000000pt" viewBox="0 0 58.000000 64.000000"
 preserveAspectRatio="xMidYMid meet">

<g transform="translate(0.000000,64.000000) scale(0.100000,-0.100000)"
fill="#2B4074" stroke="none">
<path d="M280 590 c0 -29 4 -40 15 -40 11 0 15 11 15 40 0 29 -4 40 -15 40
-11 0 -15 -11 -15 -40z"/>
<path d="M138 584 c-10 -9 15 -74 28 -74 21 0 23 13 9 48 -13 30 -25 39 -37
26z"/>
<path d="M415 558 c-8 -21 -10 -37 -4 -42 13 -14 27 3 35 42 9 43 -12 43 -31
0z"/>
<path d="M222 489 c-46 -23 -72 -55 -90 -108 -25 -71 -13 -108 77 -240 34 -50
35 -51 86 -51 51 0 52 1 86 51 96 141 106 183 67 265 -41 88 -142 126 -226 83z
m66 -281 c2 -56 0 -68 -13 -68 -12 0 -15 13 -15 64 0 59 -2 65 -22 69 -13 3
-7 4 12 4 l35 -2 3 -67z m65 65 c-21 -4 -23 -10 -23 -69 0 -36 -4 -64 -10 -64
-6 0 -10 30 -10 70 l0 70 33 -1 c23 -1 26 -3 10 -6z"/>
<path d="M508 436 c-11 -15 -13 -27 -7 -37 7 -11 12 -9 26 11 10 14 18 29 18
34 0 19 -21 15 -37 -8z"/>
<path d="M40 437 c0 -8 11 -24 24 -36 23 -22 24 -22 29 -2 3 12 -2 26 -12 35
-21 19 -41 21 -41 3z"/>
<path d="M237 68 c-11 -35 5 -48 58 -48 53 0 69 13 58 48 -6 17 -110 17 -116
0z"/>
</g>
</svg>
