<?xml version="1.0" standalone="no"?>
<!DOCTYPE svg PUBLIC "-//W3C//DTD SVG 20010904//EN"
 "http://www.w3.org/TR/2001/REC-SVG-20010904/DTD/svg10.dtd">
<svg version="1.0" xmlns="http://www.w3.org/2000/svg"
 width="64.000000pt" height="64.000000pt" viewBox="0 0 64.000000 64.000000"
 preserveAspectRatio="xMidYMid meet">

<g transform="translate(0.000000,64.000000) scale(0.100000,-0.100000)"
fill="#2B4074" stroke="none">
<path d="M20 320 l0 -300 305 0 305 0 0 300 0 300 -305 0 -305 0 0 -300z m380
255 c10 -12 10 -18 0 -30 -27 -32 -71 -8 -56 30 3 8 14 15 24 15 11 0 25 -7
32 -15z m84 0 c9 -25 -5 -45 -30 -45 -14 0 -27 7 -30 15 -10 25 4 45 30 45 13
0 26 -7 30 -15z m81 -15 c0 -30 -35 -40 -55 -15 -10 12 -10 18 0 30 20 25 55
15 55 -15z m5 -270 l0 -210 -245 0 -245 0 0 210 0 210 245 0 245 0 0 -210z"/>
<path d="M373 368 c-29 -38 -84 -140 -81 -150 2 -6 26 26 52 71 27 45 46 84
44 87 -3 2 -10 -1 -15 -8z"/>
<path d="M187 330 c-26 -17 -45 -35 -42 -39 5 -10 90 -61 99 -61 19 0 0 23
-34 40 -22 11 -40 22 -40 25 0 2 18 14 40 26 22 13 40 26 40 31 0 14 -13 9
-63 -22z"/>
<path d="M438 342 c74 -55 71 -46 23 -76 -24 -15 -41 -30 -38 -33 9 -8 107 49
107 62 0 7 -22 24 -49 38 -55 30 -78 35 -43 9z"/>
</g>
</svg>
