<?xml version="1.0" standalone="no"?>
<!DOCTYPE svg PUBLIC "-//W3C//DTD SVG 20010904//EN"
 "http://www.w3.org/TR/2001/REC-SVG-20010904/DTD/svg10.dtd">
<svg version="1.0" xmlns="http://www.w3.org/2000/svg"
 width="64.000000pt" height="64.000000pt" viewBox="0 0 64.000000 64.000000"
 preserveAspectRatio="xMidYMid meet">

<g transform="translate(0.000000,64.000000) scale(0.100000,-0.100000)"
fill="#2B4074" stroke="none">
<path d="M411 511 c-11 -7 -7 -36 25 -165 38 -155 39 -156 66 -156 16 0 28 6
28 13 0 6 -16 81 -37 165 -38 155 -45 166 -82 143z"/>
<path d="M527 500 c-25 -20 -37 -50 -19 -50 4 0 20 12 36 26 37 33 22 54 -17
24z"/>
<path d="M205 424 c-82 -35 -154 -65 -158 -66 -5 -2 1 -21 14 -42 15 -26 23
-55 23 -92 1 -52 2 -54 29 -54 21 0 30 -6 34 -21 6 -20 10 -21 77 -14 78 7 86
10 86 29 0 14 50 26 111 26 l37 0 -37 147 c-26 102 -42 148 -52 150 -8 0 -81
-28 -164 -63z m90 -253 c8 -14 -4 -19 -69 -22 -39 -3 -61 0 -63 8 -6 18 120
32 132 14z"/>
<path d="M553 389 c-35 -10 -45 -29 -15 -29 33 0 62 12 62 26 0 16 -2 16 -47
3z"/>
<path d="M31 308 c12 -24 25 -68 29 -98 l7 -55 1 55 c2 57 -27 140 -48 140 -6
0 -1 -19 11 -42z"/>
<path d="M550 275 c0 -15 66 -33 77 -21 10 10 -9 23 -44 29 -25 5 -33 3 -33
-8z"/>
</g>
</svg>
