<?xml version="1.0" standalone="no"?>
<!DOCTYPE svg PUBLIC "-//W3C//DTD SVG 20010904//EN"
 "http://www.w3.org/TR/2001/REC-SVG-20010904/DTD/svg10.dtd">
<svg version="1.0" xmlns="http://www.w3.org/2000/svg"
 width="64.000000pt" height="65.000000pt" viewBox="0 0 64.000000 65.000000"
 preserveAspectRatio="xMidYMid meet">

<g transform="translate(0.000000,65.000000) scale(0.100000,-0.100000)"
fill="#2B4074" stroke="none">
<path d="M57 592 c-42 -46 -5 -112 61 -112 51 0 100 -47 83 -78 -14 -26 -14
-87 -1 -113 9 -16 6 -24 -17 -43 -23 -21 -35 -24 -70 -19 -37 5 -45 2 -72 -25
-39 -39 -41 -79 -5 -121 34 -41 92 -44 130 -6 22 22 25 33 22 77 -3 45 0 53
22 69 22 16 30 17 62 7 29 -9 47 -8 79 1 40 12 42 12 74 -19 29 -28 32 -36 28
-73 -7 -61 23 -97 81 -97 52 0 83 21 91 63 14 71 -45 127 -113 108 -26 -8 -34
-5 -63 25 -29 30 -31 36 -21 59 46 101 -73 216 -170 164 -31 -16 -82 37 -84
87 0 23 -8 42 -19 50 -27 20 -79 17 -98 -4z m81 -39 c4 -30 -31 -49 -52 -27
-12 12 -13 20 -5 35 14 27 53 22 57 -8z m240 -150 c50 -55 12 -143 -63 -143
-42 0 -95 44 -95 79 0 35 22 69 54 85 38 19 74 12 104 -21z m-233 -233 c40
-45 -20 -109 -71 -75 -26 17 -33 62 -12 83 18 18 63 14 83 -8z m426 0 c27 -15
26 -75 -2 -90 -30 -17 -62 -8 -78 21 -13 24 -13 29 2 53 18 27 45 33 78 16z"/>
</g>
</svg>
