<?xml version="1.0" standalone="no"?>
<!DOCTYPE svg PUBLIC "-//W3C//DTD SVG 20010904//EN"
 "http://www.w3.org/TR/2001/REC-SVG-20010904/DTD/svg10.dtd">
<svg version="1.0" xmlns="http://www.w3.org/2000/svg"
 width="64.000000pt" height="64.000000pt" viewBox="0 0 64.000000 64.000000"
 preserveAspectRatio="xMidYMid meet">

<g transform="translate(0.000000,64.000000) scale(0.100000,-0.100000)"
fill="#2B4074" stroke="none">
<path d="M224 622 c-60 -28 -112 -87 -129 -145 -19 -65 -19 -83 4 -132 16 -35
40 -61 162 -170 16 -14 30 -43 39 -79 7 -31 16 -56 20 -56 4 0 13 26 20 58 10
45 20 64 48 87 141 120 182 184 166 258 -15 72 -67 143 -129 174 -48 25 -152
27 -201 5z m124 -124 l3 -47 47 -3 c39 -3 47 -6 47 -23 0 -17 -8 -20 -47 -23
l-47 -3 -3 -47 c-3 -43 -5 -47 -28 -47 -23 0 -25 4 -28 48 l-3 47 -50 0 c-46
0 -49 2 -49 25 0 23 3 25 50 25 l50 0 0 43 c0 50 6 59 35 55 16 -2 21 -12 23
-50z"/>
</g>
</svg>
