<?xml version="1.0" standalone="no"?>
<!DOCTYPE svg PUBLIC "-//W3C//DTD SVG 20010904//EN"
 "http://www.w3.org/TR/2001/REC-SVG-20010904/DTD/svg10.dtd">
<svg version="1.0" xmlns="http://www.w3.org/2000/svg"
 width="64.000000pt" height="64.000000pt" viewBox="0 0 64.000000 64.000000"
 preserveAspectRatio="xMidYMid meet">

<g transform="translate(0.000000,64.000000) scale(0.100000,-0.100000)"
fill="#2B4074" stroke="none">
<path d="M235 621 c-70 -18 -125 -63 -161 -131 -25 -47 -25 -162 -2 -206 22
-41 72 -90 111 -110 39 -21 138 -30 163 -15 15 9 11 10 -22 5 -26 -4 -63 0
-98 10 -168 49 -217 257 -89 378 87 83 235 76 320 -13 64 -68 79 -164 38 -245
-28 -56 -29 -58 -14 -48 21 13 49 89 49 134 0 25 -5 61 -10 81 -13 46 -72 114
-120 139 -43 22 -122 32 -165 21z"/>
<path d="M210 574 c-76 -33 -120 -102 -120 -187 0 -113 83 -199 194 -201 61 0
69 3 60 28 -5 13 -13 16 -31 11 -31 -7 -94 10 -127 36 -117 92 -48 288 102
289 123 0 200 -112 153 -223 -15 -36 -18 -54 -10 -62 14 -14 46 26 59 76 42
156 -129 298 -280 233z"/>
<path d="M260 481 c-27 -22 -32 -32 -27 -53 4 -15 16 -29 26 -33 11 -3 21 -18
23 -35 5 -35 -6 -39 -24 -10 -16 25 -28 26 -28 0 0 -11 11 -27 24 -35 13 -9
27 -26 31 -38 l8 -22 4 22 c2 12 15 29 29 37 34 23 33 72 -1 88 -16 7 -25 19
-25 35 0 27 15 31 24 6 5 -13 9 -14 19 -4 9 9 5 18 -19 41 l-31 29 -33 -28z
m20 -42 c0 -11 -4 -17 -10 -14 -5 3 -10 13 -10 21 0 8 5 14 10 14 6 0 10 -9
10 -21z m46 -98 c-13 -20 -26 -11 -26 16 0 25 1 26 16 11 9 -9 13 -21 10 -27z"/>
<path d="M354 263 c3 -10 17 -67 32 -126 l27 -108 27 32 26 32 29 -35 c27 -34
30 -35 52 -21 l23 15 -31 39 -30 38 38 19 37 20 -112 56 c-61 31 -114 56 -118
56 -3 0 -3 -8 0 -17z"/>
</g>
</svg>
